<svg width="31" height="31" viewBox="0 0 31 31" fill="none" xmlns="http://www.w3.org/2000/svg">
<path d="M15.5018 7.0625C17.5728 7.0625 19.2518 8.74143 19.2518 10.8125C19.2518 11.3229 19.1502 11.808 18.9666 12.2501C17.4281 12.4148 15.9741 13.2111 15.0146 14.5313C13.8341 14.3782 12.825 13.6762 12.2526 12.6863C11.9342 12.1358 11.7518 11.4969 11.7518 10.8125C11.7518 8.74143 13.4307 7.0625 15.5018 7.0625ZM20.9051 12.3805C21.0494 11.8823 21.1268 11.356 21.1268 10.8125C21.1268 7.7059 18.6084 5.1875 15.5018 5.1875C12.3951 5.1875 9.87675 7.7059 9.87675 10.8125C9.87675 11.356 9.95409 11.8823 10.0985 12.3805C9.59491 12.5046 9.10052 12.7007 8.62985 12.9725C5.93945 14.5258 5.01765 17.9659 6.57095 20.6564C8.12426 23.3468 11.5644 24.2686 14.2548 22.7153C14.7255 22.4435 15.1426 22.1134 15.5018 21.7394C15.861 22.1134 16.278 22.4434 16.7486 22.7152C19.4391 24.2685 22.8792 23.3467 24.4326 20.6563C25.9858 17.9659 25.0641 14.5257 22.3736 12.9724C21.903 12.7007 21.4086 12.5045 20.9051 12.3805ZM16.5839 20.1259C17.2106 18.7111 17.2481 17.0536 16.5845 15.5626C17.3073 14.6167 18.4197 14.0938 19.5632 14.093C20.199 14.0926 20.8436 14.2541 21.4361 14.5962C23.2298 15.6317 23.8443 17.9252 22.8087 19.7188C21.7732 21.5124 19.4798 22.1269 17.6861 21.0914C17.2442 20.8363 16.8749 20.5059 16.5839 20.1259ZM14.9064 16.4065C15.3641 17.5054 15.2607 18.7304 14.6896 19.721C14.372 20.2719 13.91 20.7493 13.3173 21.0915C11.5238 22.127 9.23029 21.5125 8.19476 19.7189C7.15922 17.9252 7.77375 15.6318 9.56735 14.5963C10.0094 14.3411 10.4802 14.1864 10.9548 14.1244C11.8668 15.3744 13.2834 16.2356 14.9064 16.4065Z" fill="#FF9F43"/>
</svg>
