<svg width="39" height="39" viewBox="0 0 39 39" fill="none" xmlns="http://www.w3.org/2000/svg">
<path d="M15.9375 25.4375C15.9375 25.4375 24.25 26.625 27.8125 30.1875H29C29.6559 30.1875 30.1875 29.6559 30.1875 29V21.8002C31.2118 21.5366 31.9688 20.6066 31.9688 19.5C31.9688 18.3934 31.2118 17.4634 30.1875 17.1998V10C30.1875 9.34417 29.6559 8.8125 29 8.8125H27.8125C24.25 12.375 15.9375 13.5625 15.9375 13.5625H11.1875C9.87582 13.5625 8.8125 14.6258 8.8125 15.9375V23.0625C8.8125 24.3742 9.87582 25.4375 11.1875 25.4375H12.375L13.5625 31.375H15.9375V25.4375ZM18.3125 15.5352C19.1239 15.3611 20.1264 15.1204 21.2092 14.8019C23.202 14.2158 25.7344 13.2925 27.8125 11.8698V27.1302C25.7344 25.7075 23.202 24.7843 21.2092 24.1981C20.1264 23.8796 19.1239 23.6389 18.3125 23.4648V15.5352ZM11.1875 15.9375H15.9375V23.0625H11.1875V15.9375Z" fill="#008080"/>
</svg>
