<svg width="19" height="34" viewBox="0 0 19 34" fill="none" xmlns="http://www.w3.org/2000/svg">
<path d="M9.49834 0.628418C6.88584 0.628418 4.74834 2.76592 4.74834 5.37842C4.74834 6.71911 5.32784 7.92561 6.23272 8.79248C5.9522 8.98982 5.69133 9.21371 5.45372 9.46104C4.45622 10.5179 3.83397 11.9287 3.56084 13.4677H3.59766L1.22266 25.3427L0.925781 26.7534H5.93584V33.8784H8.31084V26.7534H10.6858V33.8784H13.0608V26.7534H18.0709L17.774 25.3427L15.399 13.4677C15.1259 12.0023 14.5322 10.6058 13.543 9.53467C13.2946 9.2625 13.0215 9.01403 12.7272 8.79248C13.6451 7.92561 14.2483 6.72861 14.2483 5.37842C14.2483 2.76592 12.1108 0.628418 9.49834 0.628418ZM9.49834 3.00342C10.8248 3.00342 11.8733 4.05198 11.8733 5.37842C11.8733 6.70486 10.8248 7.75342 9.49834 7.75342C8.17191 7.75342 7.12334 6.70486 7.12334 5.37842C7.12334 4.05198 8.17191 3.00342 9.49834 3.00342ZM9.49834 10.1284C10.4816 10.1284 11.187 10.5037 11.7997 11.1675C12.4113 11.8313 12.8934 12.8145 13.0977 13.9142L15.1758 24.3784H3.82209L5.90022 13.913H5.93584C6.14484 12.7255 6.59966 11.728 7.19816 11.0939C7.79547 10.4574 8.49253 10.1284 9.49834 10.1284Z" fill="#6A24FF"/>
</svg>
