<svg width="29" height="25" viewBox="0 0 29 25" fill="none" xmlns="http://www.w3.org/2000/svg">
<path d="M5 11.4617L0.25 8.69092L14.5 0.378418L28.75 8.69092V18.7847H26.375V10.0764L24 11.4617V19.3918L23.7357 19.7185C21.5605 22.4064 18.2309 24.1284 14.5 24.1284C10.7691 24.1284 7.43947 22.4064 5.26437 19.7185L5 19.3918V11.4617ZM7.375 12.8472V18.5373C9.11731 20.5113 11.6632 21.7534 14.5 21.7534C17.3368 21.7534 19.8827 20.5113 21.625 18.5373V12.8472L14.5 17.0034L7.375 12.8472ZM4.96351 8.69092L14.5 14.2539L24.0365 8.69092L14.5 3.12797L4.96351 8.69092Z" fill="#008080"/>
</svg>
