<svg width="39" height="39" viewBox="0 0 39 39" fill="none" xmlns="http://www.w3.org/2000/svg">
<path d="M6.675 7.625H32.325C32.7029 7.625 33.0654 7.77513 33.3326 8.04237C33.5999 8.30961 33.75 8.67207 33.75 9.05V29.95C33.75 30.3279 33.5999 30.6904 33.3326 30.9576C33.0654 31.2249 32.7029 31.375 32.325 31.375H6.675C6.29707 31.375 5.93461 31.2249 5.66737 30.9576C5.40013 30.6904 5.25 30.3279 5.25 29.95V9.05C5.25 8.67207 5.40013 8.30961 5.66737 8.04237C5.93461 7.77513 6.29707 7.625 6.675 7.625ZM30.9 13.6641L19.6026 23.7817L8.1 13.6328V28.525H30.9V13.6641ZM8.82818 10.475L19.5869 19.9683L30.1904 10.475H8.82818Z" fill="#28C76F"/>
</svg>
