<svg width="15" height="34" viewBox="0 0 15 34" fill="none" xmlns="http://www.w3.org/2000/svg">
<path d="M7.5 0.628418C4.8875 0.628418 2.75 2.76592 2.75 5.37842C2.75459 6.59909 3.23365 7.77015 4.08594 8.64404C1.88669 9.85886 0.375 12.2018 0.375 14.8784V21.298L0.708688 21.6697L2.75 23.7099V33.8784H5.125V22.7088L4.79131 22.3371L2.75 20.297V14.8784C2.75 12.2434 4.86494 10.1284 7.5 10.1284C10.1351 10.1284 12.25 12.2434 12.25 14.8784V20.297L10.2087 22.3371L9.875 22.7088V33.8784H12.25V23.7099L14.2913 21.6697L14.625 21.298V14.8784C14.625 12.2018 13.1133 9.85886 10.9141 8.64404C11.7663 7.77015 12.2454 6.59909 12.25 5.37842C12.25 2.76592 10.1125 0.628418 7.5 0.628418ZM7.5 3.00342C8.82644 3.00342 9.875 4.05198 9.875 5.37842C9.875 6.70486 8.82644 7.75342 7.5 7.75342C6.17356 7.75342 5.125 6.70486 5.125 5.37842C5.125 4.05198 6.17356 3.00342 7.5 3.00342Z" fill="#FF9F43"/>
</svg>
